<svg xmlns="http://www.w3.org/2000/svg" viewBox="0 0 900 300">
  <defs>
    <linearGradient id="nrGrad" x1="0%" y1="0%" x2="0%" y2="100%">
      <stop offset="0%" style="stop-color:#1CE783"/>
      <stop offset="100%" style="stop-color:#17B86A"/>
    </linearGradient>
    <linearGradient id="toolGrad" x1="0%" y1="0%" x2="0%" y2="100%">
      <stop offset="0%" style="stop-color:#4A90D9"/>
      <stop offset="100%" style="stop-color:#3A7BC8"/>
    </linearGradient>
    <linearGradient id="dtGrad" x1="0%" y1="0%" x2="0%" y2="100%">
      <stop offset="0%" style="stop-color:#6F2DA8"/>
      <stop offset="100%" style="stop-color:#5A2490"/>
    </linearGradient>
    <filter id="shadow" x="-20%" y="-20%" width="140%" height="140%">
      <feDropShadow dx="2" dy="2" stdDeviation="3" flood-opacity="0.3"/>
    </filter>
  </defs>

  <!-- Background -->
  <rect width="900" height="300" fill="#f8f9fa"/>

  <!-- New Relic Box -->
  <g filter="url(#shadow)">
    <rect x="30" y="40" width="200" height="220" rx="10" fill="url(#nrGrad)"/>
    <text x="130" y="75" text-anchor="middle" fill="white" font-family="Arial, sans-serif" font-size="18" font-weight="bold">New Relic</text>

    <!-- NR Items -->
    <rect x="50" y="95" width="160" height="30" rx="5" fill="white" fill-opacity="0.9"/>
    <text x="130" y="115" text-anchor="middle" fill="#333" font-family="Arial, sans-serif" font-size="12">Dashboards</text>

    <rect x="50" y="130" width="160" height="30" rx="5" fill="white" fill-opacity="0.9"/>
    <text x="130" y="150" text-anchor="middle" fill="#333" font-family="Arial, sans-serif" font-size="12">Alerts</text>

    <rect x="50" y="165" width="160" height="30" rx="5" fill="white" fill-opacity="0.9"/>
    <text x="130" y="185" text-anchor="middle" fill="#333" font-family="Arial, sans-serif" font-size="12">Synthetics</text>

    <rect x="50" y="200" width="160" height="30" rx="5" fill="white" fill-opacity="0.9"/>
    <text x="130" y="220" text-anchor="middle" fill="#333" font-family="Arial, sans-serif" font-size="12">SLOs / Workloads</text>
  </g>

  <!-- Arrow 1 -->
  <path d="M 240 150 L 310 150" stroke="#666" stroke-width="3" fill="none" marker-end="url(#arrowhead)"/>
  <defs>
    <marker id="arrowhead" markerWidth="10" markerHeight="7" refX="9" refY="3.5" orient="auto">
      <polygon points="0 0, 10 3.5, 0 7" fill="#666"/>
    </marker>
  </defs>

  <!-- Migration Tool Box -->
  <g filter="url(#shadow)">
    <rect x="320" y="40" width="260" height="220" rx="10" fill="url(#toolGrad)"/>
    <text x="450" y="75" text-anchor="middle" fill="white" font-family="Arial, sans-serif" font-size="18" font-weight="bold">Migration Tool</text>

    <!-- Pipeline -->
    <rect x="340" y="100" width="70" height="50" rx="5" fill="white" fill-opacity="0.9"/>
    <text x="375" y="130" text-anchor="middle" fill="#333" font-family="Arial, sans-serif" font-size="11" font-weight="bold">Export</text>

    <path d="M 415 125 L 435 125" stroke="white" stroke-width="2" fill="none" marker-end="url(#arrowWhite)"/>
    <defs>
      <marker id="arrowWhite" markerWidth="8" markerHeight="6" refX="7" refY="3" orient="auto">
        <polygon points="0 0, 8 3, 0 6" fill="white"/>
      </marker>
    </defs>

    <rect x="445" y="100" width="70" height="50" rx="5" fill="white" fill-opacity="0.9"/>
    <text x="480" y="130" text-anchor="middle" fill="#333" font-family="Arial, sans-serif" font-size="11" font-weight="bold">Transform</text>

    <path d="M 520 125 L 540 125" stroke="white" stroke-width="2" fill="none" marker-end="url(#arrowWhite)"/>

    <rect x="550" y="100" width="70" height="50" rx="5" fill="white" fill-opacity="0.9"/>
    <text x="585" y="130" text-anchor="middle" fill="#333" font-family="Arial, sans-serif" font-size="11" font-weight="bold">Import</text>

    <!-- Features -->
    <text x="450" y="180" text-anchor="middle" fill="white" font-family="Arial, sans-serif" font-size="11">+ NRQL to DQL Converter</text>
    <text x="450" y="200" text-anchor="middle" fill="white" font-family="Arial, sans-serif" font-size="11">+ Entity Mapping</text>
    <text x="450" y="220" text-anchor="middle" fill="white" font-family="Arial, sans-serif" font-size="11">+ Dry Run Mode</text>
  </g>

  <!-- Arrow 2 -->
  <path d="M 590 150 L 660 150" stroke="#666" stroke-width="3" fill="none" marker-end="url(#arrowhead)"/>

  <!-- Dynatrace Box -->
  <g filter="url(#shadow)">
    <rect x="670" y="40" width="200" height="220" rx="10" fill="url(#dtGrad)"/>
    <text x="770" y="75" text-anchor="middle" fill="white" font-family="Arial, sans-serif" font-size="18" font-weight="bold">Dynatrace</text>

    <!-- DT Items -->
    <rect x="690" y="95" width="160" height="30" rx="5" fill="white" fill-opacity="0.9"/>
    <text x="770" y="115" text-anchor="middle" fill="#333" font-family="Arial, sans-serif" font-size="12">Dashboards</text>

    <rect x="690" y="130" width="160" height="30" rx="5" fill="white" fill-opacity="0.9"/>
    <text x="770" y="150" text-anchor="middle" fill="#333" font-family="Arial, sans-serif" font-size="12">Metric Events</text>

    <rect x="690" y="165" width="160" height="30" rx="5" fill="white" fill-opacity="0.9"/>
    <text x="770" y="185" text-anchor="middle" fill="#333" font-family="Arial, sans-serif" font-size="12">HTTP/Browser Monitors</text>

    <rect x="690" y="200" width="160" height="30" rx="5" fill="white" fill-opacity="0.9"/>
    <text x="770" y="220" text-anchor="middle" fill="#333" font-family="Arial, sans-serif" font-size="12">SLOs / Mgmt Zones</text>
  </g>
</svg>
